<?xml version="1.0" encoding="utf-8" standalone="yes"?>
<!DOCTYPE svg PUBLIC "-//W3C//DTD SVG 1.1//EN" "http://www.w3.org/Graphics/SVG/1.1/DTD/svg11.dtd">
<svg width="794" height="566" viewBox="0 0 794 566" style="fill:none;stroke:none;fill-rule:evenodd;clip-rule:evenodd;stroke-linecap:round;stroke-linejoin:round;stroke-miterlimit:1.5;" version="1.1" xmlns="http://www.w3.org/2000/svg" xmlns:xlink="http://www.w3.org/1999/xlink"><style class="text-font-style fontImports" data-font-family="Roboto">@import url('https://fonts.googleapis.com/css2?family=Roboto:wght@400;700&amp;display=block');</style><rect id="" x="0" y="0" width="794" height="566" style="fill: #ffffff;"></rect><g id="items" style="isolation: isolate"><g id="blend" style="mix-blend-mode: normal"><g id="g-root-tf_htenlv1lhxh52-fill" data-item-order="-446688" transform="translate(-9, -9)"><g id="tf_htenlv1lhxh52-fill" stroke="none" fill="#ffffff"><g><path d="M 10 10L 802 10L 802 574L 10 574Z"></path></g></g></g><g id="g-root-3.line_sy_hyegar1lhw1l1-fill" data-item-order="-92654" transform="translate(303, 406.3828125)"></g><g id="g-root-3.line_1_sy_92rg1v1lhw2dq-fill" data-item-order="-92650" transform="translate(327, 411.921875)"></g><g id="g-root-3.line_2_sy_92rg1v1lhw2dr-fill" data-item-order="-92646" transform="translate(351, 417.4609375)"></g><g id="g-root-3.line_3_sy_4mxxxf1lhw360-fill" data-item-order="-92642" transform="translate(447, 406.392578125)"></g><g id="g-root-3.line_4_sy_4mxxxf1lhw361-fill" data-item-order="-92638" transform="translate(423, 411.927734375)"></g><g id="g-root-3.line_5_sy_4mxxxf1lhw362-fill" data-item-order="-92634" transform="translate(399, 417.462890625)"></g><g id="g-root-3.line_6_sy_7qww31lhw0sj-fill" data-item-order="-92630" transform="translate(375, 422.998046875)"></g><g id="g-root-3.cu_sy_7qww31lhw0sk-fill" data-item-order="-92629" transform="translate(219, 345)"><g id="3.cu_sy_7qww31lhw0sk-fill" stroke="none" fill="#92bd39"><g><path d="M 10 52L 10 40L 140 10L 166 16L 192 10L 322 40L 322 52L 166 88L 10 52Z"></path></g></g></g><g id="g-root-2.line_sy_1qd7ymb1lhw1e5-fill" data-item-order="-92622" transform="translate(279, 328.84375)"></g><g id="g-root-2.line_1_sy_1lxeghv1lhw26e-fill" data-item-order="-92618" transform="translate(303, 334.3828125)"></g><g id="g-root-2.line_2_sy_1lxeghv1lhw26f-fill" data-item-order="-92614" transform="translate(327, 339.921875)"></g><g id="g-root-2.line_3_sy_1hhkydf1lhw2yo-fill" data-item-order="-92610" transform="translate(351, 345.4609375)"></g><g id="g-root-2.line_4_sy_1hhkydf1lhw2yp-fill" data-item-order="-92606" transform="translate(471, 328.857421875)"></g><g id="g-root-2.line_5_sy_1hhkydf1lhw2yq-fill" data-item-order="-92602" transform="translate(447, 334.392578125)"></g><g id="g-root-2.line_6_sy_18mkf7n1lhw0ln-fill" data-item-order="-92598" transform="translate(423, 339.927734375)"></g><g id="g-root-2.line_7_sy_18mkf7n1lhw0lo-fill" data-item-order="-92594" transform="translate(399, 345.462890625)"></g><g id="g-root-2.line_8_sy_146qx371lhw1dx-fill" data-item-order="-92590" transform="translate(375, 350.998046875)"></g><g id="g-root-2.cu_sy_vb3wub1lhw26m-fill" data-item-order="-92589" transform="translate(219, 273)"><g id="2.cu_sy_vb3wub1lhw26m-fill" stroke="none" fill="#3cc583"><g><path d="M 10 52L 10 40L 140 10L 166 16L 192 10L 322 40L 322 52L 166 88L 10 52Z"></path></g></g></g><g id="g-root-1.line_sy_qvaepv1lhw2yv-fill" data-item-order="-92582" transform="translate(255, 251.3046875)"></g><g id="g-root-1.line_1_sy_qvaepv1lhw2yw-fill" data-item-order="-92578" transform="translate(279, 256.84375)"></g><g id="g-root-1.line_2_sy_mg3doj1lhw0ld-fill" data-item-order="-92574" transform="translate(303, 262.3828125)"></g><g id="g-root-1.line_3_sy_mg3doj1lhw0le-fill" data-item-order="-92570" transform="translate(327, 267.921875)"></g><g id="g-root-1.line_4_sy_dkgdfn1lhw1e3-fill" data-item-order="-92566" transform="translate(351, 273.4609375)"></g><g id="g-root-1.line_5_sy_94mvb71lhw26c-fill" data-item-order="-92562" transform="translate(495, 251.322265625)"></g><g id="g-root-1.line_6_sy_94mvb71lhw26d-fill" data-item-order="-92558" transform="translate(471, 256.857421875)"></g><g id="g-root-1.line_7_sy_94mvb71lhw26e-fill" data-item-order="-92554" transform="translate(447, 262.392578125)"></g><g id="g-root-1.line_8_sy_8zv2b1lhw2z3-fill" data-item-order="-92550" transform="translate(423, 267.927734375)"></g><g id="g-root-1.line_9_sy_4otd6r1lhw2yo-fill" data-item-order="-92546" transform="translate(399, 273.462890625)"></g><g id="g-root-1.line_10_sy_1uuaewz1lhw3k9-fill" data-item-order="-92542" transform="translate(375, 278.998046875)"></g><g id="g-root-1.cu_sy_1uuaewz1lhw3ka-fill" data-item-order="-92541" transform="translate(219, 195)"><g id="1.cu_sy_1uuaewz1lhw3ka-fill" stroke="none" fill="#1eabda"><g><path d="M 10 58L 10 46L 166 10L 322 46L 322 58L 166 94L 10 58Z"></path></g></g></g><g id="g-root-0.line_sy_1qf3dvn1lhw16r-fill" data-item-order="-92534" transform="translate(231, 171.00018310546875)"></g><g id="g-root-0.line_1_sy_1qf3dvn1lhw16s-fill" data-item-order="-92530" transform="translate(447, 183)"></g><g id="g-root-0.line_2_sy_1qf3dvn1lhw16t-fill" data-item-order="-92526" transform="translate(399, 183)"></g><g id="g-root-0.line_3_sy_1hjgdmr1lhw1zi-fill" data-item-order="-92522" transform="translate(303, 183)"></g><g id="g-root-0.line_4_sy_1hjgdmr1lhw1zj-fill" data-item-order="-92518" transform="translate(423, 171)"></g><g id="g-root-0.line_5_sy_1d3mvib1lhw2rs-fill" data-item-order="-92514" transform="translate(255, 183)"></g><g id="g-root-0.line_6_sy_1d3mvib1lhw2rt-fill" data-item-order="-92510" transform="translate(519, 171)"></g><g id="g-root-0.line_7_sy_1d3mvib1lhw2ru-fill" data-item-order="-92506" transform="translate(471, 171)"></g><g id="g-root-0.line_8_sy_1d3mvib1lhw2rv-fill" data-item-order="-92502" transform="translate(279, 171)"></g><g id="g-root-0.line_9_sy_18ntddv1lhw3k4-fill" data-item-order="-92498" transform="translate(351, 183)"></g><g id="g-root-0.line_10_sy_18ntddv1lhw3k5-fill" data-item-order="-92494" transform="translate(327, 171)"></g><g id="g-root-0.line_11_sy_zit8ub1lhxfri-fill" data-item-order="-92490" transform="translate(495, 183)"></g><g id="g-root-0.line_12_sy_zit8ub1lhxfrj-fill" data-item-order="-92486" transform="translate(375, 171)"></g><g id="g-root-tx_creditca_zk270j1lhxhxp-fill" data-item-order="0" transform="translate(213, 39)"><g id="tx_creditca_zk270j1lhxhxp-fill" stroke="none" fill="#484848"><g><text style="font: bold 20px Roboto, sans-serif; white-space: pre;" font-weight="bold" font-size="20px" font-family="Roboto, sans-serif"><tspan x="12.52" y="34" dominant-baseline="ideographic">Credit Card Data Processing Funnel</tspan></text></g></g></g><g id="g-root-tx_realtime_voxv1lhxhc3-fill" data-item-order="0" transform="translate(255, 135)"><g id="tx_realtime_voxv1lhxhc3-fill" stroke="none" fill="#484848"><g><text style="font: 20px Roboto, sans-serif; white-space: pre;" font-size="20px" font-family="Roboto, sans-serif"><tspan x="12.63" y="34" dominant-baseline="ideographic">Real-time Credit Card Data</tspan></text></g></g></g><g id="g-root-tx_fetchdat_hrj8cj1lhxi4q-fill" data-item-order="0" transform="translate(87, 225)"><g id="tx_fetchdat_hrj8cj1lhxi4q-fill" stroke="none" fill="#32444a"><g><text style="font: 20px Roboto, sans-serif; white-space: pre;" font-size="20px" font-family="Roboto, sans-serif"><tspan x="20.13" y="34" dominant-baseline="ideographic">Fetch Data</tspan></text></g></g></g><g id="g-root-tx_generate_qn68lf1lhxhc1-fill" data-item-order="0" transform="translate(555, 297)"><g id="tx_generate_qn68lf1lhxhc1-fill" stroke="none" fill="#374840"><g><text style="font: 20px Roboto, sans-serif; white-space: pre;" font-size="20px" font-family="Roboto, sans-serif"><tspan x="12" y="34" dominant-baseline="ideographic">Generate Embeddings</tspan></text></g></g></g><g id="g-root-tx_calculat_v2zqpv1lhxgjs-fill" data-item-order="0" transform="translate(15, 369)"><g id="tx_calculat_v2zqpv1lhxgjs-fill" stroke="none" fill="#424736"><g><text style="font: 20px Roboto, sans-serif; white-space: pre;" font-size="20px" font-family="Roboto, sans-serif"><tspan x="22.13" y="34" dominant-baseline="ideographic">Calculate K-Means</tspan></text></g></g></g><g id="g-root-tx_clustere_1cvipdv1lhxgcs-fill" data-item-order="0" transform="translate(267, 483)"><g id="tx_clustere_1cvipdv1lhxgcs-fill" stroke="none" fill="#484848"><g><text style="font: 20px Roboto, sans-serif; white-space: pre;" font-size="20px" font-family="Roboto, sans-serif"><tspan x="14.51" y="34" dominant-baseline="ideographic">Clustered Data Insights</tspan></text></g></g></g><g id="g-root-tf_htenlv1lhxh52-stroke" data-item-order="-446688" transform="translate(-9, -9)"></g><g id="g-root-3.line_sy_hyegar1lhw1l1-stroke" data-item-order="-92654" transform="translate(303, 406.3828125)"><g id="3.line_sy_hyegar1lhw1l1-stroke" fill="none" stroke-linecap="round" stroke-linejoin="round" stroke-miterlimit="4" stroke="#484848" stroke-width="2"><g><path d="M 10 9.997187L 10 52.997187"></path><path d="M 3.5 47.017187L 10 53.517187L 16.5 47.017187" stroke-dasharray="none"></path></g></g></g><g id="g-root-3.line_1_sy_92rg1v1lhw2dq-stroke" data-item-order="-92650" transform="translate(327, 411.921875)"><g id="3.line_1_sy_92rg1v1lhw2dq-stroke" fill="none" stroke-linecap="round" stroke-linejoin="round" stroke-miterlimit="4" stroke="#484848" stroke-width="2"><g><path d="M 10 9.998125L 10 52.998125"></path><path d="M 3.5 46.978125L 10 53.478125L 16.5 46.978125" stroke-dasharray="none"></path></g></g></g><g id="g-root-3.line_2_sy_92rg1v1lhw2dr-stroke" data-item-order="-92646" transform="translate(351, 417.4609375)"><g id="3.line_2_sy_92rg1v1lhw2dr-stroke" fill="none" stroke-linecap="round" stroke-linejoin="round" stroke-miterlimit="4" stroke="#484848" stroke-width="2"><g><path d="M 10 9.999062L 10 52.999062"></path><path d="M 3.5 47.039063L 10 53.539063L 16.5 47.039063" stroke-dasharray="none"></path></g></g></g><g id="g-root-3.line_3_sy_4mxxxf1lhw360-stroke" data-item-order="-92642" transform="translate(447, 406.392578125)"><g id="3.line_3_sy_4mxxxf1lhw360-stroke" fill="none" stroke-linecap="round" stroke-linejoin="round" stroke-miterlimit="4" stroke="#484848" stroke-width="2"><g><path d="M 10 9.997422L 10 52.997422"></path><path d="M 3.5 47.007422L 10 53.507422L 16.5 47.007422" stroke-dasharray="none"></path></g></g></g><g id="g-root-3.line_4_sy_4mxxxf1lhw361-stroke" data-item-order="-92638" transform="translate(423, 411.927734375)"><g id="3.line_4_sy_4mxxxf1lhw361-stroke" fill="none" stroke-linecap="round" stroke-linejoin="round" stroke-miterlimit="4" stroke="#484848" stroke-width="2"><g><path d="M 10 10.002266L 10 53.002266"></path><path d="M 3.5 46.972266L 10 53.472266L 16.5 46.972266" stroke-dasharray="none"></path></g></g></g><g id="g-root-3.line_5_sy_4mxxxf1lhw362-stroke" data-item-order="-92634" transform="translate(399, 417.462890625)"><g id="3.line_5_sy_4mxxxf1lhw362-stroke" fill="none" stroke-linecap="round" stroke-linejoin="round" stroke-miterlimit="4" stroke="#484848" stroke-width="2"><g><path d="M 10 9.997109L 10 52.997109"></path><path d="M 3.5 47.037109L 10 53.537109L 16.5 47.037109" stroke-dasharray="none"></path></g></g></g><g id="g-root-3.line_6_sy_7qww31lhw0sj-stroke" data-item-order="-92630" transform="translate(375, 422.998046875)"><g id="3.line_6_sy_7qww31lhw0sj-stroke" fill="none" stroke-linecap="round" stroke-linejoin="round" stroke-miterlimit="4" stroke="#484848" stroke-width="2"><g><path d="M 10 10.001953L 10 53.001953"></path><path d="M 3.5 47.001953L 10 53.501953L 16.5 47.001953" stroke-dasharray="none"></path></g></g></g><g id="g-root-3.cu_sy_7qww31lhw0sk-stroke" data-item-order="-92629" transform="translate(219, 345)"><g id="3.cu_sy_7qww31lhw0sk-stroke" fill="none" stroke-linecap="round" stroke-linejoin="round" stroke-miterlimit="4" stroke="#ffffff" stroke-width="2"><g><path d="M 10 40L 10 52L 166 88L 322 52L 322 40M 10 40L 165.9714 76L 322 40M 10 40L 140 10L 166 16L 192 10L 322 40"></path></g></g></g><g id="g-root-2.line_sy_1qd7ymb1lhw1e5-stroke" data-item-order="-92622" transform="translate(279, 328.84375)"><g id="2.line_sy_1qd7ymb1lhw1e5-stroke" fill="none" stroke-linecap="round" stroke-linejoin="round" stroke-miterlimit="4" stroke="#484848" stroke-width="2"><g><path d="M 10 9.99625L 10 52.99625"></path><path d="M 3.5 46.95625L 10 53.45625L 16.5 46.95625" stroke-dasharray="none"></path></g></g></g><g id="g-root-2.line_1_sy_1lxeghv1lhw26e-stroke" data-item-order="-92618" transform="translate(303, 334.3828125)"><g id="2.line_1_sy_1lxeghv1lhw26e-stroke" fill="none" stroke-linecap="round" stroke-linejoin="round" stroke-miterlimit="4" stroke="#484848" stroke-width="2"><g><path d="M 10 9.997187L 10 52.997187"></path><path d="M 3.5 47.017187L 10 53.517187L 16.5 47.017187" stroke-dasharray="none"></path></g></g></g><g id="g-root-2.line_2_sy_1lxeghv1lhw26f-stroke" data-item-order="-92614" transform="translate(327, 339.921875)"><g id="2.line_2_sy_1lxeghv1lhw26f-stroke" fill="none" stroke-linecap="round" stroke-linejoin="round" stroke-miterlimit="4" stroke="#484848" stroke-width="2"><g><path d="M 10 9.998125L 10 52.998125"></path><path d="M 3.5 46.978125L 10 53.478125L 16.5 46.978125" stroke-dasharray="none"></path></g></g></g><g id="g-root-2.line_3_sy_1hhkydf1lhw2yo-stroke" data-item-order="-92610" transform="translate(351, 345.4609375)"><g id="2.line_3_sy_1hhkydf1lhw2yo-stroke" fill="none" stroke-linecap="round" stroke-linejoin="round" stroke-miterlimit="4" stroke="#484848" stroke-width="2"><g><path d="M 10 9.999062L 10 52.999062"></path><path d="M 3.5 47.039063L 10 53.539063L 16.5 47.039063" stroke-dasharray="none"></path></g></g></g><g id="g-root-2.line_4_sy_1hhkydf1lhw2yp-stroke" data-item-order="-92606" transform="translate(471, 328.857421875)"><g id="2.line_4_sy_1hhkydf1lhw2yp-stroke" fill="none" stroke-linecap="round" stroke-linejoin="round" stroke-miterlimit="4" stroke="#484848" stroke-width="2"><g><path d="M 10 10.002578L 10 53.002578"></path><path d="M 3.5 47.042578L 10 53.542578L 16.5 47.042578" stroke-dasharray="none"></path></g></g></g><g id="g-root-2.line_5_sy_1hhkydf1lhw2yq-stroke" data-item-order="-92602" transform="translate(447, 334.392578125)"><g id="2.line_5_sy_1hhkydf1lhw2yq-stroke" fill="none" stroke-linecap="round" stroke-linejoin="round" stroke-miterlimit="4" stroke="#484848" stroke-width="2"><g><path d="M 10 9.997422L 10 52.997422"></path><path d="M 3.5 47.007422L 10 53.507422L 16.5 47.007422" stroke-dasharray="none"></path></g></g></g><g id="g-root-2.line_6_sy_18mkf7n1lhw0ln-stroke" data-item-order="-92598" transform="translate(423, 339.927734375)"><g id="2.line_6_sy_18mkf7n1lhw0ln-stroke" fill="none" stroke-linecap="round" stroke-linejoin="round" stroke-miterlimit="4" stroke="#484848" stroke-width="2"><g><path d="M 10 10.002266L 10 53.002266"></path><path d="M 3.5 46.972266L 10 53.472266L 16.5 46.972266" stroke-dasharray="none"></path></g></g></g><g id="g-root-2.line_7_sy_18mkf7n1lhw0lo-stroke" data-item-order="-92594" transform="translate(399, 345.462890625)"><g id="2.line_7_sy_18mkf7n1lhw0lo-stroke" fill="none" stroke-linecap="round" stroke-linejoin="round" stroke-miterlimit="4" stroke="#484848" stroke-width="2"><g><path d="M 10 9.997109L 10 52.997109"></path><path d="M 3.5 47.037109L 10 53.537109L 16.5 47.037109" stroke-dasharray="none"></path></g></g></g><g id="g-root-2.line_8_sy_146qx371lhw1dx-stroke" data-item-order="-92590" transform="translate(375, 350.998046875)"><g id="2.line_8_sy_146qx371lhw1dx-stroke" fill="none" stroke-linecap="round" stroke-linejoin="round" stroke-miterlimit="4" stroke="#484848" stroke-width="2"><g><path d="M 10 10.001953L 10 53.001953"></path><path d="M 3.5 47.001953L 10 53.501953L 16.5 47.001953" stroke-dasharray="none"></path></g></g></g><g id="g-root-2.cu_sy_vb3wub1lhw26m-stroke" data-item-order="-92589" transform="translate(219, 273)"><g id="2.cu_sy_vb3wub1lhw26m-stroke" fill="none" stroke-linecap="round" stroke-linejoin="round" stroke-miterlimit="4" stroke="#ffffff" stroke-width="2"><g><path d="M 10 40L 10 52L 166 88L 322 52L 322 40M 10 40L 165.9714 76L 322 40M 10 40L 140 10L 166 16L 192 10L 322 40"></path></g></g></g><g id="g-root-1.line_sy_qvaepv1lhw2yv-stroke" data-item-order="-92582" transform="translate(255, 251.3046875)"><g id="1.line_sy_qvaepv1lhw2yv-stroke" fill="none" stroke-linecap="round" stroke-linejoin="round" stroke-miterlimit="4" stroke="#484848" stroke-width="2"><g><path d="M 10 9.995313L 10 52.995313"></path><path d="M 3.5 46.995313L 10 53.495313L 16.5 46.995313" stroke-dasharray="none"></path></g></g></g><g id="g-root-1.line_1_sy_qvaepv1lhw2yw-stroke" data-item-order="-92578" transform="translate(279, 256.84375)"><g id="1.line_1_sy_qvaepv1lhw2yw-stroke" fill="none" stroke-linecap="round" stroke-linejoin="round" stroke-miterlimit="4" stroke="#484848" stroke-width="2"><g><path d="M 10 9.99625L 10 52.99625"></path><path d="M 3.5 46.95625L 10 53.45625L 16.5 46.95625" stroke-dasharray="none"></path></g></g></g><g id="g-root-1.line_2_sy_mg3doj1lhw0ld-stroke" data-item-order="-92574" transform="translate(303, 262.3828125)"><g id="1.line_2_sy_mg3doj1lhw0ld-stroke" fill="none" stroke-linecap="round" stroke-linejoin="round" stroke-miterlimit="4" stroke="#484848" stroke-width="2"><g><path d="M 10 9.997187L 10 52.997187"></path><path d="M 3.5 47.017187L 10 53.517187L 16.5 47.017187" stroke-dasharray="none"></path></g></g></g><g id="g-root-1.line_3_sy_mg3doj1lhw0le-stroke" data-item-order="-92570" transform="translate(327, 267.921875)"><g id="1.line_3_sy_mg3doj1lhw0le-stroke" fill="none" stroke-linecap="round" stroke-linejoin="round" stroke-miterlimit="4" stroke="#484848" stroke-width="2"><g><path d="M 10 9.998125L 10 52.998125"></path><path d="M 3.5 46.978125L 10 53.478125L 16.5 46.978125" stroke-dasharray="none"></path></g></g></g><g id="g-root-1.line_4_sy_dkgdfn1lhw1e3-stroke" data-item-order="-92566" transform="translate(351, 273.4609375)"><g id="1.line_4_sy_dkgdfn1lhw1e3-stroke" fill="none" stroke-linecap="round" stroke-linejoin="round" stroke-miterlimit="4" stroke="#484848" stroke-width="2"><g><path d="M 10 9.999062L 10 52.999062"></path><path d="M 3.5 47.039063L 10 53.539063L 16.5 47.039063" stroke-dasharray="none"></path></g></g></g><g id="g-root-1.line_5_sy_94mvb71lhw26c-stroke" data-item-order="-92562" transform="translate(495, 251.322265625)"><g id="1.line_5_sy_94mvb71lhw26c-stroke" fill="none" stroke-linecap="round" stroke-linejoin="round" stroke-miterlimit="4" stroke="#484848" stroke-width="2"><g><path d="M 10 9.997734L 10 52.997734"></path><path d="M 3.5 46.977734L 10 53.477734L 16.5 46.977734" stroke-dasharray="none"></path></g></g></g><g id="g-root-1.line_6_sy_94mvb71lhw26d-stroke" data-item-order="-92558" transform="translate(471, 256.857421875)"><g id="1.line_6_sy_94mvb71lhw26d-stroke" fill="none" stroke-linecap="round" stroke-linejoin="round" stroke-miterlimit="4" stroke="#484848" stroke-width="2"><g><path d="M 10 10.002578L 10 53.002578"></path><path d="M 3.5 47.042578L 10 53.542578L 16.5 47.042578" stroke-dasharray="none"></path></g></g></g><g id="g-root-1.line_7_sy_94mvb71lhw26e-stroke" data-item-order="-92554" transform="translate(447, 262.392578125)"><g id="1.line_7_sy_94mvb71lhw26e-stroke" fill="none" stroke-linecap="round" stroke-linejoin="round" stroke-miterlimit="4" stroke="#484848" stroke-width="2"><g><path d="M 10 9.997422L 10 52.997422"></path><path d="M 3.5 47.007422L 10 53.507422L 16.5 47.007422" stroke-dasharray="none"></path></g></g></g><g id="g-root-1.line_8_sy_8zv2b1lhw2z3-stroke" data-item-order="-92550" transform="translate(423, 267.927734375)"><g id="1.line_8_sy_8zv2b1lhw2z3-stroke" fill="none" stroke-linecap="round" stroke-linejoin="round" stroke-miterlimit="4" stroke="#484848" stroke-width="2"><g><path d="M 10 10.002266L 10 53.002266"></path><path d="M 3.5 46.972266L 10 53.472266L 16.5 46.972266" stroke-dasharray="none"></path></g></g></g><g id="g-root-1.line_9_sy_4otd6r1lhw2yo-stroke" data-item-order="-92546" transform="translate(399, 273.462890625)"><g id="1.line_9_sy_4otd6r1lhw2yo-stroke" fill="none" stroke-linecap="round" stroke-linejoin="round" stroke-miterlimit="4" stroke="#484848" stroke-width="2"><g><path d="M 10 9.997109L 10 52.997109"></path><path d="M 3.5 47.037109L 10 53.537109L 16.5 47.037109" stroke-dasharray="none"></path></g></g></g><g id="g-root-1.line_10_sy_1uuaewz1lhw3k9-stroke" data-item-order="-92542" transform="translate(375, 278.998046875)"><g id="1.line_10_sy_1uuaewz1lhw3k9-stroke" fill="none" stroke-linecap="round" stroke-linejoin="round" stroke-miterlimit="4" stroke="#484848" stroke-width="2"><g><path d="M 10 10.001953L 10 53.001953"></path><path d="M 3.5 47.001953L 10 53.501953L 16.5 47.001953" stroke-dasharray="none"></path></g></g></g><g id="g-root-1.cu_sy_1uuaewz1lhw3ka-stroke" data-item-order="-92541" transform="translate(219, 195)"><g id="1.cu_sy_1uuaewz1lhw3ka-stroke" fill="none" stroke-linecap="round" stroke-linejoin="round" stroke-miterlimit="4" stroke="#ffffff" stroke-width="2"><g><path d="M 10 46L 10 58L 166 94L 322 58L 322 46M 10 46L 166 10L 322 46M 10 46L 166 82L 322 46"></path></g></g></g><g id="g-root-0.line_sy_1qf3dvn1lhw16r-stroke" data-item-order="-92534" transform="translate(231, 171.00018310546875)"><g id="0.line_sy_1qf3dvn1lhw16r-stroke" fill="none" stroke-linecap="round" stroke-linejoin="round" stroke-miterlimit="4" stroke="#484848" stroke-width="2"><g><path d="M 10 9.999817L 10 55.769817"></path><path d="M 3.5 49.799817L 10 56.299817L 16.5 49.799817" stroke-dasharray="none"></path></g></g></g><g id="g-root-0.line_1_sy_1qf3dvn1lhw16s-stroke" data-item-order="-92530" transform="translate(447, 183)"><g id="0.line_1_sy_1qf3dvn1lhw16s-stroke" fill="none" stroke-linecap="round" stroke-linejoin="round" stroke-miterlimit="4" stroke="#484848" stroke-width="2"><g><path d="M 10 10L 10 60.39"></path><path d="M 3.5 54.4L 10 60.9L 16.5 54.4" stroke-dasharray="none"></path></g></g></g><g id="g-root-0.line_2_sy_1qf3dvn1lhw16t-stroke" data-item-order="-92526" transform="translate(399, 183)"><g id="0.line_2_sy_1qf3dvn1lhw16t-stroke" fill="none" stroke-linecap="round" stroke-linejoin="round" stroke-miterlimit="4" stroke="#484848" stroke-width="2"><g><path d="M 10 10L 10 71.46"></path><path d="M 3.5 65.5L 10 72L 16.5 65.5" stroke-dasharray="none"></path></g></g></g><g id="g-root-0.line_3_sy_1hjgdmr1lhw1zi-stroke" data-item-order="-92522" transform="translate(303, 183)"><g id="0.line_3_sy_1hjgdmr1lhw1zi-stroke" fill="none" stroke-linecap="round" stroke-linejoin="round" stroke-miterlimit="4" stroke="#484848" stroke-width="2"><g><path d="M 10 10L 10 60.38"></path><path d="M 3.5 54.4L 10 60.9L 16.5 54.4" stroke-dasharray="none"></path></g></g></g><g id="g-root-0.line_4_sy_1hjgdmr1lhw1zj-stroke" data-item-order="-92518" transform="translate(423, 171)"><g id="0.line_4_sy_1hjgdmr1lhw1zj-stroke" fill="none" stroke-linecap="round" stroke-linejoin="round" stroke-miterlimit="4" stroke="#484848" stroke-width="2"><g><path d="M 10 10L 10 77.93"></path><path d="M 3.5 71.9L 10 78.4L 16.5 71.9" stroke-dasharray="none"></path></g></g></g><g id="g-root-0.line_5_sy_1d3mvib1lhw2rs-stroke" data-item-order="-92514" transform="translate(255, 183)"><g id="0.line_5_sy_1d3mvib1lhw2rs-stroke" fill="none" stroke-linecap="round" stroke-linejoin="round" stroke-miterlimit="4" stroke="#484848" stroke-width="2"><g><path d="M 10 10L 10 49.31"></path><path d="M 3.5 43.3L 10 49.8L 16.5 43.3" stroke-dasharray="none"></path></g></g></g><g id="g-root-0.line_6_sy_1d3mvib1lhw2rt-stroke" data-item-order="-92510" transform="translate(519, 171)"><g id="0.line_6_sy_1d3mvib1lhw2rt-stroke" fill="none" stroke-linecap="round" stroke-linejoin="round" stroke-miterlimit="4" stroke="#484848" stroke-width="2"><g><path d="M 10 10L 10 55.79"></path><path d="M 3.5 49.8L 10 56.3L 16.5 49.8" stroke-dasharray="none"></path></g></g></g><g id="g-root-0.line_7_sy_1d3mvib1lhw2ru-stroke" data-item-order="-92506" transform="translate(471, 171)"><g id="0.line_7_sy_1d3mvib1lhw2ru-stroke" fill="none" stroke-linecap="round" stroke-linejoin="round" stroke-miterlimit="4" stroke="#484848" stroke-width="2"><g><path d="M 10 10L 10 66.86"></path><path d="M 3.5 60.9L 10 67.4L 16.5 60.9" stroke-dasharray="none"></path></g></g></g><g id="g-root-0.line_8_sy_1d3mvib1lhw2rv-stroke" data-item-order="-92502" transform="translate(279, 171)"><g id="0.line_8_sy_1d3mvib1lhw2rv-stroke" fill="none" stroke-linecap="round" stroke-linejoin="round" stroke-miterlimit="4" stroke="#484848" stroke-width="2"><g><path d="M 10 10L 10 66.84"></path><path d="M 3.5 60.8L 10 67.3L 16.5 60.8" stroke-dasharray="none"></path></g></g></g><g id="g-root-0.line_9_sy_18ntddv1lhw3k4-stroke" data-item-order="-92498" transform="translate(351, 183)"><g id="0.line_9_sy_18ntddv1lhw3k4-stroke" fill="none" stroke-linecap="round" stroke-linejoin="round" stroke-miterlimit="4" stroke="#484848" stroke-width="2"><g><path d="M 10 10L 10 71.46"></path><path d="M 3.5 65.5L 10 72L 16.5 65.5" stroke-dasharray="none"></path></g></g></g><g id="g-root-0.line_10_sy_18ntddv1lhw3k5-stroke" data-item-order="-92494" transform="translate(327, 171)"><g id="0.line_10_sy_18ntddv1lhw3k5-stroke" fill="none" stroke-linecap="round" stroke-linejoin="round" stroke-miterlimit="4" stroke="#484848" stroke-width="2"><g><path d="M 10 10L 10 77.92"></path><path d="M 3.5 71.9L 10 78.4L 16.5 71.9" stroke-dasharray="none"></path></g></g></g><g id="g-root-0.line_11_sy_zit8ub1lhxfri-stroke" data-item-order="-92490" transform="translate(495, 183)"><g id="0.line_11_sy_zit8ub1lhxfri-stroke" fill="none" stroke-linecap="round" stroke-linejoin="round" stroke-miterlimit="4" stroke="#484848" stroke-width="2"><g><path d="M 10 10L 10 49.32"></path><path d="M 3.5 43.3L 10 49.8L 16.5 43.3" stroke-dasharray="none"></path></g></g></g><g id="g-root-0.line_12_sy_zit8ub1lhxfrj-stroke" data-item-order="-92486" transform="translate(375, 171)"><g id="0.line_12_sy_zit8ub1lhxfrj-stroke" fill="none" stroke-linecap="round" stroke-linejoin="round" stroke-miterlimit="4" stroke="#484848" stroke-width="2"><g><path d="M 10 10L 10 89"></path><path d="M 3.5 83L 10 89.5L 16.5 83" stroke-dasharray="none"></path></g></g></g><g id="g-root-tx_creditca_zk270j1lhxhxp-stroke" data-item-order="0" transform="translate(213, 39)"></g><g id="g-root-tx_realtime_voxv1lhxhc3-stroke" data-item-order="0" transform="translate(255, 135)"></g><g id="g-root-tx_fetchdat_hrj8cj1lhxi4q-stroke" data-item-order="0" transform="translate(87, 225)"></g><g id="g-root-tx_generate_qn68lf1lhxhc1-stroke" data-item-order="0" transform="translate(555, 297)"></g><g id="g-root-tx_calculat_v2zqpv1lhxgjs-stroke" data-item-order="0" transform="translate(15, 369)"></g><g id="g-root-tx_clustere_1cvipdv1lhxgcs-stroke" data-item-order="0" transform="translate(267, 483)"></g></g></g></svg>